<?xml version="1.0" encoding="UTF-8"?>
<svg width="200px" height="200px" viewBox="0 0 200 200" version="1.1" xmlns="http://www.w3.org/2000/svg" xmlns:xlink="http://www.w3.org/1999/xlink">
    <!-- Generator: Sketch 53.2 (72643) - https://sketchapp.com -->
    <title>3133-apple-pay</title>
	<desc>Created with Sketch for Hektor Commerce.</desc>
    <g id="3133-apple-pay" stroke="none" stroke-width="1" fill-rule="evenodd">
    			<rect id="core" fill-opacity="0" x="100" y="100" width="1" height="1" fill="#000" />
        <path d="M20.28736,142.86144 C20.1092267,141.871573 20.0494933,140.862507 20.0228267,139.861973 C20.0100267,139.403307 20.0046933,138.94464 20.00256,138.484907 C19.99936,137.938773 20.0004267,137.394773 20.0004267,136.847573 L20.0004267,63.2881067 C20.0004267,62.7419733 19.99936,62.1969067 20.00256,61.6507733 C20.0046933,61.1921067 20.0100267,60.7323733 20.0228267,60.2737067 C20.0494933,59.2731733 20.1092267,58.26304 20.28736,57.27424 C20.4676267,56.2683733 20.7620267,55.3329067 21.2270933,54.4209067 C21.6836267,53.52384 22.2788267,52.70464 22.99136,51.9931733 C23.70176,51.28064 24.52416,50.6843733 25.4212267,50.22784 C26.33216,49.76384 27.2676267,49.4683733 28.27136,49.28704 C29.26016,49.1099733 30.2702933,49.0513067 31.27296,49.0235733 C31.7316267,49.01184 32.1902933,49.0065067 32.6510933,49.0033067 C33.19616,49.0001067 33.7412267,49.0001067 34.28736,49.0001067 L165.25056,49.0001067 C165.795627,49.0001067 166.34176,49.0001067 166.886827,49.0033067 C167.345493,49.0065067 167.80416,49.01184 168.267093,49.0235733 C169.265493,49.0513067 170.27456,49.1099733 171.26656,49.28704 C172.270293,49.4683733 173.204693,49.76384 174.116693,50.22784 C175.014827,50.6843733 175.83296,51.28064 176.545493,51.9931733 C177.255893,52.70464 177.853227,53.52384 178.310827,54.4209067 C178.775893,55.3329067 179.070293,56.2683733 179.249493,57.27424 C179.427627,58.26304 179.486293,59.2731733 179.514027,60.2737067 C179.52576,60.7323733 179.53216,61.1921067 179.534293,61.6507733 C179.53856,62.1969067 179.53856,62.7419733 179.53856,63.2881067 L179.53856,136.847573 C179.53856,137.394773 179.53856,137.938773 179.534293,138.484907 C179.53216,138.94464 179.52576,139.403307 179.514027,139.861973 C179.486293,140.862507 179.427627,141.871573 179.249493,142.86144 C179.070293,143.86624 178.775893,144.801707 178.310827,145.713707 C177.853227,146.61184 177.255893,147.432107 176.545493,148.142507 C175.83296,148.85504 175.014827,149.452373 174.116693,149.906773 C173.204693,150.372907 172.270293,150.667307 171.26656,150.847573 C170.27456,151.02464 169.265493,151.08544 168.267093,151.112107 C167.80416,151.122773 167.345493,151.129173 166.886827,151.131307 C166.34176,151.135573 165.795627,151.135573 165.25056,151.135573 L34.28736,151.135573 C33.7412267,151.135573 33.19616,151.135573 32.6510933,151.131307 C32.1902933,151.129173 31.7316267,151.122773 31.27296,151.112107 C30.2702933,151.08544 29.26016,151.02464 28.27136,150.847573 C27.2676267,150.667307 26.33216,150.372907 25.4212267,149.906773 C24.52416,149.452373 23.70176,148.85504 22.99136,148.142507 C22.2788267,147.432107 21.6836267,146.61184 21.2270933,145.713707 C20.7620267,144.801707 20.4676267,143.86624 20.28736,142.86144 Z M23.40416,62.9499733 L23.40416,137.185707 L23.4062933,138.465707 C23.4094933,138.898773 23.4148267,139.33504 23.42656,139.771307 C23.4468267,140.532907 23.48736,141.423573 23.63776,142.25664 C23.7678933,142.98304 23.9652267,143.589973 24.2606933,144.169173 C24.55616,144.750507 24.93696,145.275307 25.3966933,145.732907 C25.8596267,146.196907 26.3844267,146.577707 26.9604267,146.87104 C27.5460267,147.169707 28.1518933,147.368107 28.8750933,147.49824 C29.7166933,147.647573 30.6478933,147.689173 31.3646933,147.70944 C31.78816,147.71904 32.22656,147.72544 32.6670933,147.727573 C33.20576,147.729707 33.73696,147.729707 34.2670933,147.729707 L165.25056,147.729707 C165.787093,147.729707 166.324693,147.730773 166.86016,147.727573 C167.309227,147.72544 167.747627,147.71904 168.189227,147.708373 C168.890027,147.689173 169.821227,147.647573 170.670293,147.497173 C171.38496,147.368107 171.991893,147.169707 172.570027,146.875307 C173.152427,146.57984 173.677227,146.197973 174.139093,145.73504 C174.598827,145.276373 174.98176,144.74944 175.277227,144.169173 C175.572693,143.588907 175.770027,142.984107 175.898027,142.265173 C176.048427,141.432107 176.090027,140.537173 176.110293,139.771307 C176.122027,139.336107 176.128427,138.90304 176.13056,138.469973 C176.134827,137.92064 176.134827,137.385173 176.134827,136.847573 L176.134827,63.2881067 C176.134827,62.7505067 176.134827,62.21504 176.13056,61.67744 C176.128427,61.2337067 176.122027,60.7995733 176.110293,60.3665067 C176.090027,59.59744 176.048427,58.7035733 175.90016,57.87904 C175.770027,57.1505067 175.572693,56.5467733 175.278293,55.96864 C174.98176,55.3873067 174.598827,54.8603733 174.13696,54.39744 C173.677227,53.9387733 173.150293,53.5547733 172.57536,53.2635733 C171.994027,52.96704 171.386027,52.76864 170.662827,52.6385067 C169.82976,52.4891733 168.93696,52.4475733 168.174293,52.4273067 C167.735893,52.4155733 167.29856,52.41024 166.862293,52.40704 L165.25056,52.40384 L34.28736,52.40384 L32.67136,52.40704 C32.2372267,52.41024 31.8020267,52.4155733 31.36576,52.4273067 C30.5998933,52.4475733 29.7060267,52.4891733 28.8740267,52.6385067 C28.1518933,52.76864 27.54496,52.96704 26.9646933,53.26144 C26.3854933,53.55584 25.85856,53.93984 25.3988267,54.3985067 C24.93696,54.8603733 24.5550933,55.38624 24.2628267,55.96224 C23.9652267,56.5457067 23.76896,57.1515733 23.6398933,57.87264 C23.48736,58.71104 23.4468267,59.6027733 23.42656,60.36544 C23.4148267,60.80064 23.4094933,61.2379733 23.4062933,61.6731733 L23.40416,62.9499733 Z M58.1696,80.1914667 C59.5690667,78.4997333 61.984,77.2912 63.9637333,77.1930667 C64.2058667,79.5130667 63.2885333,81.7850667 61.936,83.4768 C60.5344,85.1205333 58.3146667,86.4250667 56.0917333,86.232 C55.8026667,84.0090667 56.9130667,81.6410667 58.1696,80.1914667 Z M56.4266667,88.4976 C57.8965333,88.4976 60.4661333,86.6533333 63.5029333,86.6533333 C63.648,86.6533333 63.792,86.6576 63.9381333,86.6661333 C65.1914667,86.7621333 68.8032,87.1493333 71.1157333,90.5669333 C70.9226667,90.7141333 66.8288,93.0746667 66.8768,98.0378667 C66.9248,103.967467 72.0778667,105.942933 72.1269333,105.992 C72.0778667,106.137067 71.3098667,108.787733 69.4304,111.533333 C67.7930667,113.942933 66.1066667,116.304533 63.4090667,116.3536 C60.8074667,116.4016 59.9413333,114.810133 56.9557333,114.810133 C53.9690667,114.810133 53.0048,116.304533 50.5482667,116.4016 C47.9477333,116.4976 45.9744,113.845867 44.336,111.437333 C40.9642667,106.569067 38.4106667,97.7018667 41.8794667,91.7253333 C43.5648,88.7376 46.6474667,86.8581333 49.9701333,86.8090667 C52.5226667,86.7621333 54.8842667,88.4976 56.4266667,88.4976 Z M82.5642667,79.9504 L96.1184,79.9504 C103.133867,79.9504 108.0192,84.7856 108.0192,91.8245333 C108.0192,98.8901333 103.0336,103.750933 95.9434667,103.750933 L88.176,103.750933 L88.176,116.102933 L82.5642667,116.102933 L82.5642667,79.9504 Z M88.176,84.6853333 L88.176,99.0405333 L94.6154667,99.0405333 C99.5008,99.0405333 102.280533,96.4101333 102.280533,91.8501333 C102.280533,87.2912 99.5008,84.6853333 94.64,84.6853333 L88.176,84.6853333 Z M110.7136,97.6378667 C110.864,92.952 115.2736,89.5461333 121.236267,89.5461333 C127.650133,89.5461333 131.834667,92.9029333 131.834667,98.1136 L131.834667,116.102933 L126.647467,116.102933 L126.647467,111.769067 L126.522667,111.769067 C125.044267,114.598933 121.786667,116.378133 118.254933,116.378133 C113.0432,116.378133 109.412267,113.270933 109.412267,108.611733 C109.412267,103.976 112.944,101.32 119.457067,100.92 L126.448,100.493333 L126.448,98.4890667 C126.448,95.5589333 124.5184,93.9557333 121.085867,93.9557333 C118.254933,93.9557333 116.199467,95.4085333 115.774933,97.6378667 L110.7136,97.6378667 Z M114.8736,108.461333 C114.8736,110.666133 116.776533,112.093333 119.758933,112.093333 C123.566933,112.093333 126.448,109.663467 126.448,106.282133 L126.448,104.252267 L120.210133,104.653333 C116.701867,104.8784 114.8736,106.1808 114.8736,108.461333 Z M153.2128,89.8704 L158.9248,89.8704 L149.0784,117.504533 C146.823467,123.843733 144.2432,125.9248 138.7808,125.9248 C138.356267,125.9248 136.977067,125.874667 136.6016,125.772267 L136.6016,121.439467 C136.9536,121.488533 137.803733,121.538667 138.254933,121.538667 C140.736,121.538667 142.138667,120.488 142.990933,117.781867 L143.4912,116.178667 L133.9968,89.8704 L139.858133,89.8704 L146.472533,111.216533 L146.5984,111.216533 L153.2128,89.8704 Z" id="Shape" fill="#000" />
    </g>
</svg>