<?xml version="1.0" encoding="UTF-8"?>
<svg xmlns="http://www.w3.org/2000/svg" xmlns:xlink="http://www.w3.org/1999/xlink" width="200px" height="200px" viewBox="0 0 200 200" version="1.1">
	<!-- Generator: Sketch 53.2 (72643) - https://sketchapp.com -->
	<title>3132-google-pay</title>
	<desc>Created with Sketch for Hektor Commerce.</desc>
	<g id="3132-google-pay" stroke="none" stroke-width="1" fill-rule="evenodd">
		<rect id="core" fill-opacity="0" x="100" y="100" width="1" height="1" fill="#000" />
		<path d="M179.91008,61.7063467 C179.91328,62.2535467 179.91328,62.7986133 179.91328,63.34688 L179.91328,137.034347 C179.91328,137.581547 179.91328,138.126613 179.91008,138.67488 C179.90688,139.134613 179.901547,139.594347 179.888747,140.05408 C179.861013,141.056747 179.80448,142.067947 179.624213,143.057813 C179.445013,144.065813 179.149547,145.002347 178.683413,145.91648 C178.224747,146.81568 177.627413,147.635947 176.91488,148.34848 C176.200213,149.06208 175.37888,149.66048 174.47968,150.117013 C173.565547,150.58208 172.627947,150.878613 171.623147,151.05888 C170.629013,151.235947 169.616747,151.29568 168.61408,151.323413 C168.152213,151.333013 167.691413,151.34048 167.232747,151.342613 C166.686613,151.34688 166.138347,151.34688 165.592213,151.34688 L34.3207467,151.34688 C33.7735467,151.34688 33.2263467,151.34688 32.6802133,151.342613 C32.2194133,151.34048 31.75968,151.333013 31.29888,151.323413 C30.2951467,151.29568 29.2818133,151.235947 28.2919467,151.05888 C27.2839467,150.878613 26.3474133,150.58208 25.43328,150.117013 C24.53408,149.66048 23.7127467,149.06208 22.99808,148.34848 C22.2855467,147.635947 21.6871467,146.81568 21.2306133,145.91648 C20.76448,145.002347 20.4690133,144.065813 20.2887467,143.057813 C20.1095467,142.067947 20.0498133,141.056747 20.0231467,140.05408 C20.0103467,139.594347 20.0039467,139.134613 20.0018133,138.67488 C19.9986133,138.126613 19.99968,137.581547 19.99968,137.034347 L19.99968,63.34688 C19.99968,62.7986133 19.9986133,62.2535467 20.0018133,61.7063467 C20.0039467,61.2466133 20.0103467,60.7879467 20.0231467,60.3271467 C20.0498133,59.3234133 20.1095467,58.31328 20.2887467,57.3223467 C20.4690133,56.3143467 20.76448,55.3778133 21.2306133,54.4647467 C21.6871467,53.56448 22.2855467,52.74528 22.99808,52.03168 C23.7127467,51.3191467 24.53408,50.7207467 25.43328,50.2631467 C26.3474133,49.7991467 27.2839467,49.5026133 28.2919467,49.3234133 C29.2818133,49.1442133 30.2951467,49.0855467 31.29888,49.0578133 C31.75968,49.04608 32.2194133,49.0407467 32.6802133,49.03648 C33.2263467,49.03328 33.7735467,49.03328 34.3207467,49.03328 L165.592213,49.03328 C166.138347,49.03328 166.686613,49.03328 167.232747,49.03648 C167.691413,49.0407467 168.152213,49.04608 168.61408,49.0578133 C169.616747,49.0855467 170.629013,49.1442133 171.623147,49.3234133 C172.627947,49.5026133 173.565547,49.7991467 174.47968,50.2631467 C175.37888,50.7207467 176.200213,51.3191467 176.91488,52.03168 C177.627413,52.74528 178.224747,53.56448 178.683413,54.4647467 C179.149547,55.3778133 179.445013,56.3143467 179.624213,57.3223467 C179.80448,58.31328 179.861013,59.3234133 179.888747,60.3271467 C179.901547,60.7879467 179.90688,61.2466133 179.91008,61.7063467 Z M176.501013,137.034347 L176.501013,63.34688 C176.501013,62.8082133 176.501013,62.2706133 176.497813,61.7330133 C176.49568,61.2882133 176.48928,60.85408 176.477547,60.4210133 C176.45728,59.65088 176.41568,58.7538133 176.266347,57.9282133 C176.136213,57.1975467 175.939947,56.5938133 175.643413,56.0146133 C175.34688,55.4322133 174.96288,54.9042133 174.499947,54.4402133 C174.03808,53.9815467 173.511147,53.59648 172.93408,53.3042133 C172.350613,53.0087467 171.741547,52.80928 171.01728,52.6791467 C170.183147,52.5287467 169.287147,52.4871467 168.522347,52.4679467 C168.081813,52.4551467 167.64448,52.4498133 167.208213,52.4466133 L165.592213,52.4434133 L34.3207467,52.4434133 L32.70048,52.4466133 C32.2663467,52.4498133 31.8290133,52.4551467 31.3927467,52.4679467 C30.6247467,52.4871467 29.7287467,52.5287467 28.8946133,52.6791467 C28.1703467,52.80928 27.5623467,53.00768 26.9810133,53.3031467 C26.39968,53.5986133 25.87168,53.9815467 25.4119467,54.4423467 C24.95008,54.9042133 24.56608,55.4311467 24.27168,56.0082133 C23.9751467,56.5927467 23.7767467,57.19968 23.64768,57.9218133 C23.4962133,58.76128 23.45568,59.65408 23.43328,60.4199467 C23.4215467,60.8562133 23.4162133,61.29248 23.41408,61.7287467 L23.4119467,63.0098133 L23.4119467,137.37248 L23.41408,138.65568 C23.4162133,139.088747 23.4215467,139.52608 23.43328,139.962347 C23.45568,140.72608 23.4962133,141.61888 23.6455467,142.451947 C23.7767467,143.181547 23.9751467,143.787413 24.2706133,144.368747 C24.5671467,144.951147 24.95008,145.477013 25.4098133,145.93568 C25.8727467,146.39968 26.3986133,146.782613 26.97568,147.07488 C27.5634133,147.373547 28.1703467,147.573013 28.8946133,147.70208 C29.7394133,147.853547 30.6727467,147.896213 31.39168,147.914347 C31.8162133,147.925013 32.2567467,147.930347 32.69728,147.93248 C33.2370133,147.936747 33.7682133,147.936747 34.30048,147.936747 L165.592213,147.936747 C166.129813,147.936747 166.66848,147.936747 167.205013,147.93248 C167.656213,147.930347 168.09568,147.925013 168.53728,147.91328 C169.239147,147.896213 170.17248,147.853547 171.024747,147.701013 C171.741547,147.573013 172.34848,147.373547 172.928747,147.079147 C173.512213,146.78368 174.037013,146.400747 174.50208,145.937813 C174.96288,145.477013 175.345813,144.95008 175.64128,144.368747 C175.939947,143.786347 176.136213,143.182613 176.264213,142.461547 C176.41568,141.627413 176.45728,140.730347 176.477547,139.962347 C176.48928,139.527147 176.49568,139.093013 176.497813,138.657813 C176.501013,138.110613 176.501013,137.573013 176.501013,137.034347 Z M40.8192,89.6645333 C44.2709333,82.6885333 51.3162667,78.2682667 59.0144,78.2682667 C59.088,78.2672 59.1616,78.2672 59.2352,78.2672 C64.2208,78.2672 69.0005333,80.1850667 72.6538667,83.6357333 L66.8256,89.5493333 C64.7306667,87.512 61.9296,86.392 59.0144,86.4485333 C53.6928,86.4485333 49.1946667,90.0954667 47.5808,95.0032 L47.5733112,94.9972872 C46.7328074,97.5743097 46.7353036,100.350472 47.5808,102.896533 C49.1946667,107.7776 53.6928,111.4224 59.0144,111.4224 C61.7589333,111.4224 64.1088,110.7056 65.9466667,109.4416 C68.0981333,108.005867 69.5701333,105.7104 70.0224,103.154667 L59.0144,103.154667 L59.0144,95.2037333 L78.2293333,95.2037333 C78.4554667,96.5818667 78.5685333,97.9877333 78.5685333,99.3946667 C78.5685333,105.7104 76.3616,111.021333 72.512,114.6096 C69.1445333,117.766933 64.5034667,119.602667 59.0144,119.602667 C51.3162667,119.602667 44.2709333,115.2112 40.8192,108.236267 L40.8192,108.207467 C37.9029333,102.380267 37.9029333,95.4917333 40.8192,89.6645333 L40.8192,89.6645333 Z M104.517333,81.1386667 C104.587733,81.1376 104.6592,81.1365333 104.728533,81.1365333 C107.569067,81.1365333 110.312533,82.2512 112.328533,84.2682667 C116.458667,88.1722667 116.714667,94.744 112.8384,98.9648 C112.667733,99.1365333 112.498133,99.3093333 112.328533,99.4810667 C110.206933,101.520533 107.602133,102.553067 104.517333,102.553067 L96.9898667,102.553067 L96.9898667,117.135467 L92.4341333,117.135467 L92.4341333,81.1386667 L104.517333,81.1386667 Z M96.9898667,85.5589333 L96.9898667,98.1317333 L104.631467,98.1317333 C106.3296,98.1893333 107.970133,97.5002667 109.130667,96.2672 C111.5072,93.7690667 111.450667,89.7498667 108.9888,87.3392 C107.828267,86.1904 106.272,85.5589333 104.631467,85.5589333 L96.9898667,85.5589333 Z M157.067733,92.5061333 L162.0192,92.5061333 L146.795733,127.9568 L142.098133,127.9568 L147.7568,115.555733 L137.7696,92.5061333 L142.721067,92.5061333 L149.936,110.189333 L150.021333,110.189333 L157.067733,92.5061333 Z M116.3744,96.4954667 C118.525867,93.3093333 121.780267,91.7018667 126.1088,91.7018667 C129.476267,91.7018667 132.1376,92.6213333 134.0896,94.4293333 C136.042667,96.2373333 137.003733,98.7642667 137.003733,101.9504 L137.003733,117.135467 L132.6464,117.135467 L132.6464,113.718933 L132.448,113.718933 C130.551467,116.5328 128.062933,117.938667 124.920533,117.938667 C122.261333,117.938667 119.9968,117.135467 118.215467,115.526933 C116.458667,114.034667 115.469867,111.823467 115.5264,109.498133 C115.5264,106.9456 116.488533,104.936 118.384,103.4128 C120.279467,101.8928 122.826667,101.146133 125.995733,101.146133 C128.712533,101.146133 130.919467,101.6624 132.6752,102.6384 L132.6752,101.577067 C132.6752,99.9973333 131.995733,98.5050667 130.807467,97.4714667 C129.591467,96.3813333 128.033067,95.7786667 126.421333,95.7786667 C123.874133,95.7786667 121.864533,96.8688 120.394667,99.0512 L116.3744,96.4954667 Z M121.722667,112.6 C122.7104,113.3776 123.911467,113.8064 125.144533,113.8064 C125.182933,113.8064 125.2224,113.8064 125.2608,113.805333 C127.184,113.805333 129.024,113.030933 130.381867,111.651733 C131.882667,110.217067 132.6464,108.5232 132.6464,106.5712 C131.232,105.4224 129.2512,104.8496 126.704,104.8784 C124.865067,104.8784 123.3088,105.337067 122.062933,106.226667 C120.845867,107.117333 120.224,108.236267 120.224,109.584533 C120.224,110.790933 120.789333,111.909867 121.722667,112.6 Z" id="Shape"  fill="#000" />
	</g>
</svg>
