<?xml version="1.0" encoding="UTF-8"?>
<svg xmlns="http://www.w3.org/2000/svg" xmlns:xlink="http://www.w3.org/1999/xlink" width="200px" height="200px" viewBox="0 0 200 200" version="1.1">
	<!-- Generator: Sketch 53.2 (72643) - https://sketchapp.com -->
	<title>009-visa-pay-logo</title>
	<desc>Created with Sketch for Hektor Commerce.</desc>
	<g id="009-visa-pay-logo" stroke="none" stroke-width="1" fill="none" fill-rule="evenodd">
		<rect id="core" fill-opacity="0" x="100" y="100" width="1" height="1" fill="#000" />
		<g id="Group-9" transform="translate(5.000000, 69.000000)" fill="#000000">
			<path d="M169.5146,39.2413 L166.1116,39.2413 C165.9676,39.2313 165.8246,39.2443 165.6856,39.2793 C165.6396,39.2963 165.6156,39.3203 165.5976,39.3453 C165.4746,39.2523 165.3186,39.2143 165.1656,39.2403 C163.8476,39.2373 162.5296,39.2373 161.2106,39.2403 C161.0606,39.2143 160.9066,39.2523 160.7836,39.3423 C160.7726,39.3303 160.7666,39.3153 160.7556,39.3033 C160.6206,39.2563 160.4776,39.2393 160.3346,39.2543 C159.8406,39.2513 159.3466,39.2573 158.8536,39.2513 C158.5156,39.2483 158.4836,39.1993 158.6006,38.8833 C158.9096,38.0503 159.1926,37.2073 159.5076,36.3763 C159.5646,36.2573 159.5896,36.1253 159.5826,35.9933 C159.5786,35.9843 159.5766,35.9753 159.5726,35.9663 C159.7026,35.8973 159.7276,35.7513 159.7716,35.6303 C160.2776,34.2283 160.7926,32.8303 161.2956,31.4273 C161.3356,31.3183 161.3986,31.2063 161.3066,31.0923 C161.4466,31.0773 161.4636,30.9553 161.4986,30.8593 C162.3576,28.4853 163.2426,26.1213 164.0526,23.7303 C164.0986,23.6303 164.1176,23.5193 164.1076,23.4093 C164.1076,23.4093 164.1066,23.4083 164.1066,23.4083 C164.2546,23.3703 164.2616,23.2263 164.3046,23.1153 C164.9886,21.2683 165.6526,19.4153 166.3266,17.5613 C166.3516,17.4923 166.3696,17.4223 166.3686,17.3503 C166.3926,17.4213 166.4046,17.4973 166.4216,17.5703 C166.4906,18.0333 166.6026,18.4903 166.7566,18.9323 C166.7636,18.9413 166.7676,18.9523 166.7736,18.9613 C166.7176,19.0573 166.7526,19.1633 166.7706,19.2633 C166.8156,19.5243 166.8696,19.7833 166.9246,20.0423 C168.0596,25.4873 169.1986,30.9323 170.3396,36.3773 C170.5446,37.3573 170.7106,38.3453 170.9776,39.3133 C170.9966,39.3153 171.0076,39.3253 171.0246,39.3293 C171.0166,39.3353 171.0126,39.3323 171.0046,39.3393 C170.7016,39.1953 170.3516,39.1993 170.0476,39.3413 C170.0176,39.3153 169.9856,39.2903 169.9416,39.2733 C169.8006,39.2433 169.6576,39.2333 169.5146,39.2413 M189.5576,60.0483 C189.0096,57.4433 188.4736,54.8373 187.9276,52.2323 C187.5366,50.3593 187.1366,48.4883 186.7416,46.6163 C186.7436,46.6053 186.7436,46.5953 186.7436,46.5833 C185.0626,38.5223 183.3806,30.4623 181.6986,22.4013 C180.2316,15.3973 178.7696,8.3913 177.3146,1.3843 C177.2626,1.1423 177.1876,1.0663 176.9356,1.0663 C172.6726,1.0693 168.4106,1.0723 164.1486,1.0743 C163.9406,1.0513 163.7296,1.0693 163.5286,1.1273 L163.5526,1.1283 C163.5446,1.1303 163.5366,1.1273 163.5296,1.1303 C162.4466,1.1863 161.3976,1.5273 160.4876,2.1163 L160.4866,2.1163 C160.3816,2.1743 160.2726,2.2243 160.1746,2.2913 C158.8516,3.2143 157.8686,4.5463 157.3796,6.0833 C157.3806,6.0833 157.3806,6.0833 157.3806,6.0843 L157.3806,6.0833 L154.4386,13.1013 C154.3126,13.3913 154.1806,13.6793 154.0606,13.9713 C153.5426,15.2233 153.0266,16.4753 152.5096,17.7273 C152.5106,17.7273 152.5106,17.7283 152.5106,17.7283 L152.5096,17.7283 C152.3226,18.1593 152.1266,18.5873 151.9466,19.0213 C151.3206,20.5293 150.6956,22.0383 150.0706,23.5473 C150.0706,23.5483 150.0716,23.5483 150.0716,23.5493 C150.0706,23.5483 150.0706,23.5473 150.0686,23.5473 C149.9626,23.7113 149.8806,23.8903 149.8276,24.0783 C149.0936,25.8393 148.3616,27.6003 147.6286,29.3623 C147.6296,29.3633 147.6306,29.3643 147.6306,29.3663 C147.6286,29.3663 147.6286,29.3643 147.6266,29.3643 C147.5256,29.5943 147.4206,29.8213 147.3256,30.0533 C146.8006,31.3203 146.2776,32.5873 145.7526,33.8543 C145.7536,33.8543 145.7536,33.8543 145.7536,33.8543 C145.4186,34.6383 145.0776,35.4213 144.7486,36.2073 C144.0766,37.8263 143.4036,39.4453 142.7316,41.0643 C142.7326,41.0643 142.7326,41.0653 142.7326,41.0653 L142.7316,41.0653 C142.5876,41.3953 142.4366,41.7233 142.2996,42.0563 C141.6506,43.6213 140.9996,45.1863 140.3506,46.7523 C139.5096,48.6793 138.7026,50.6213 137.9106,52.5693 L137.9106,52.5683 C137.8866,52.5923 137.8666,52.6173 137.8496,52.6463 C136.8346,55.0743 135.8226,57.5043 134.8116,59.9343 C134.7416,60.0433 134.7016,60.1683 134.6956,60.2973 L140.8076,60.2973 L140.8086,60.2983 L145.4356,60.2983 L150.0636,60.2983 C150.1396,60.2983 150.2166,60.3033 150.2926,60.3123 C150.6336,60.3763 150.7816,60.2303 150.8916,59.9003 C151.2466,58.8423 151.6476,57.8003 152.0266,56.7463 C152.4356,55.6023 152.8376,54.4563 153.2436,53.3103 C153.4376,52.7993 153.6486,52.2923 153.8176,51.7723 C153.8356,51.6723 153.8936,51.5833 153.9786,51.5253 C154.0626,51.4693 154.1656,51.4463 154.2656,51.4663 C154.8486,51.4783 155.4316,51.4603 156.0136,51.4533 C157.5346,51.4843 159.0546,51.4843 160.5756,51.4533 C160.5756,51.4503 160.5736,51.4483 160.5736,51.4453 C160.5746,51.4483 160.5756,51.4503 160.5766,51.4533 C162.1416,51.4843 163.7056,51.4843 165.2706,51.4533 L165.2706,51.4523 C166.8786,51.4833 168.4866,51.4833 170.0946,51.4523 C171.1406,51.4593 172.1866,51.4783 173.2326,51.4623 C173.5126,51.4583 173.6066,51.5543 173.6586,51.8043 C174.2296,54.5743 174.8096,57.3423 175.3786,60.1123 C175.4106,60.2693 175.4746,60.3123 175.6166,60.3123 C176.3556,60.3053 177.0916,60.3023 177.8286,60.2983 L179.0856,60.2983 L182.3916,60.2983 L185.9596,60.2983 C185.9606,60.2983 185.9596,60.2973 185.9596,60.2973 L188.2726,60.2973 C188.2716,60.2953 188.2706,60.2923 188.2696,60.2903 C188.2726,60.2923 188.2726,60.2963 188.2746,60.2983 C188.6376,60.3033 189.0016,60.2953 189.3646,60.3153 C189.5996,60.3293 189.5996,60.2423 189.5576,60.0483" id="Fill-1" fill="#000" />
			<path d="M66.7255,13.5733 L66.7255,13.5733 C67.0385,12.8413 67.3565,12.1083 67.6635,11.3723 C68.1635,10.1723 68.6565,8.9683 69.1525,7.7653 C69.3975,7.2663 69.6145,6.7533 69.8025,6.2293 C69.8015,6.2293 69.8015,6.2283 69.8005,6.2273 L69.8015,6.2273 C69.9855,5.8653 70.1425,5.4893 70.2685,5.1033 C70.2695,5.1043 70.2695,5.1053 70.2705,5.1063 L71.9855,1.0893 C71.8665,1.0843 71.8035,1.0783 71.7405,1.0783 C66.5425,1.0753 61.3455,1.0753 56.1475,1.0783 C56.0585,1.0783 55.9505,1.0293 55.8805,1.1353 C55.8795,1.1353 55.8775,1.1353 55.8765,1.1353 L55.3335,2.5223 C55.3335,2.5233 55.3345,2.5243 55.3345,2.5243 C54.9905,3.3793 54.6395,4.2303 54.3025,5.0863 C53.8235,6.3013 53.3545,7.5193 52.8815,8.7363 L52.8815,8.7363 L52.8805,8.7363 C52.3745,9.9953 51.8635,11.2513 51.3645,12.5123 C50.9135,13.6523 50.4735,14.7973 50.0285,15.9393 C49.1655,18.0233 48.3455,20.1203 47.5375,22.2243 C47.5385,22.2253 47.5385,22.2263 47.5385,22.2273 C47.5385,22.2273 47.5385,22.2263 47.5375,22.2263 C47.3515,22.6773 47.1615,23.1253 46.9835,23.5793 C46.4185,25.0233 45.8535,26.4673 45.2885,27.9113 L45.2885,27.9113 C44.4955,29.9153 43.7025,31.9193 42.9095,33.9243 C42.9105,33.9233 42.9105,33.9243 42.9115,33.9233 C42.9105,33.9243 42.9105,33.9243 42.9095,33.9253 C42.8085,34.1673 42.7025,34.4073 42.6065,34.6523 C41.9135,36.4153 41.2215,38.1783 40.5295,39.9413 L40.5285,39.9413 L39.9495,41.3373 C39.9205,41.2573 39.8955,41.1753 39.8745,41.0923 C39.6255,39.7663 39.3815,38.4383 39.1285,37.1133 C38.9175,36.0043 38.6985,34.8973 38.4825,33.7893 C38.4795,33.7133 38.4735,33.6363 38.4625,33.5603 C38.1665,31.9933 37.8715,30.4263 37.5765,28.8593 C36.8165,24.8173 36.0565,20.7753 35.2955,16.7343 C34.6805,13.4703 34.0895,10.2013 33.4385,6.9463 C32.8435,3.5253 29.8575,1.0403 26.3855,1.0753 C17.8045,1.0733 9.2235,1.0733 0.6425,1.0753 C0.5435,1.0753 0.4215,1.0133 0.3425,1.1353 C0.2335,1.6283 0.1255,2.1203 0.0125,2.6123 C-0.0135,2.7243 -0.0085,2.8043 0.1235,2.8343 C0.9555,3.0203 1.7875,3.2073 2.6195,3.3933 C2.6455,3.4123 2.6735,3.4273 2.7045,3.4393 C4.6975,3.9343 6.6715,4.5003 8.6195,5.1563 C9.2255,5.3603 9.8305,5.5643 10.4365,5.7683 C10.4365,5.7663 10.4355,5.7653 10.4355,5.7643 C10.4365,5.7653 10.4375,5.7663 10.4375,5.7683 C12.3105,6.4573 14.1265,7.2943 15.8675,8.2703 C16.4365,8.6593 16.9445,9.1303 17.3735,9.6703 C17.9775,10.5993 18.4065,11.6323 18.6385,12.7173 C19.5585,16.2433 20.4755,19.7703 21.3885,23.2993 C23.4905,31.4293 25.5915,39.5603 27.6925,47.6913 C28.7575,51.8083 29.8195,55.9273 30.8775,60.0493 C30.8845,60.1333 30.9275,60.2113 30.9955,60.2623 C31.0625,60.3133 31.1495,60.3343 31.2325,60.3173 C32.1795,60.3023 33.1275,60.3123 34.0755,60.3103 C35.6725,60.3063 37.2695,60.3023 38.8675,60.2983 C38.8675,60.2973 38.8675,60.2973 38.8675,60.2963 L43.4935,60.2963 C43.4925,60.2933 43.4915,60.2913 43.4915,60.2883 C43.4935,60.2913 43.4945,60.2953 43.4965,60.2983 C44.6595,60.3023 45.8225,60.3063 46.9845,60.3113 C47.0895,60.3123 47.1655,60.2993 47.2125,60.1773 C47.4015,59.6873 47.6025,59.2043 47.7995,58.7193 C47.7995,58.7183 47.7995,58.7183 47.7995,58.7173 C48.0695,58.0863 48.3505,57.4553 48.6155,56.8233 C49.1605,55.5183 49.6975,54.2093 50.2375,52.9033 C50.2375,52.9013 50.2375,52.8993 50.2375,52.8973 L50.2375,52.8983 C50.2695,52.8443 50.2995,52.7873 50.3265,52.7293 C51.0905,50.8923 51.8535,49.0553 52.6175,47.2193 C52.6175,47.2183 52.6175,47.2173 52.6175,47.2163 C52.6185,47.2173 52.6185,47.2183 52.6185,47.2193 C52.6655,47.1193 52.7185,47.0233 52.7595,46.9273 C53.5065,45.1313 54.2535,43.3333 54.9995,41.5363 C54.9985,41.5353 54.9985,41.5333 54.9975,41.5333 L54.9995,41.5333 C55.3625,40.6873 55.7295,39.8433 56.0845,38.9933 C56.5675,37.8403 57.0405,36.6833 57.5175,35.5273 L57.5175,35.5273 C57.5175,35.5273 57.5185,35.5273 57.5185,35.5283 C57.8395,34.7833 58.1645,34.0423 58.4775,33.2953 C59.0005,32.0413 59.5155,30.7833 60.0335,29.5283 C60.1375,29.3823 60.2045,29.2123 60.2265,29.0343 L60.4895,28.4393 C60.4895,28.4393 60.4895,28.4383 60.4895,28.4373 C60.5325,28.3513 60.5805,28.2663 60.6215,28.1763 C61.4165,26.2623 62.2115,24.3493 63.0055,22.4363 C63.0055,22.4353 63.0055,22.4343 63.0055,22.4333 C63.5455,21.1633 64.0915,19.8953 64.6255,18.6223 C65.3305,16.9413 66.0255,15.2583 66.7255,13.5733" id="Fill-3" fill="#000" />
			<path d="M93.8691,1.0733 L93.4481,1.0733 L80.3041,1.0733 C79.7961,1.0733 79.2901,1.0703 78.7851,1.0763 C78.6951,1.0783 78.5451,1.0073 78.5431,1.1973 L78.5431,1.1983 L78.5431,1.1993 L78.3461,2.1243 C78.3461,2.1243 78.3461,2.1243 78.3451,2.1243 C78.3261,2.1873 78.3021,2.2493 78.2871,2.3133 C77.8381,4.4053 77.3921,6.4983 76.9481,8.5913 C76.7231,9.6523 76.5071,10.7163 76.2871,11.7793 C76.2741,11.7973 76.2641,11.8183 76.2571,11.8403 C75.8291,13.8463 75.4021,15.8543 74.9751,17.8633 L74.9751,17.8623 C74.8301,18.4203 74.7131,18.9853 74.6261,19.5553 C74.6251,19.5563 74.6261,19.5583 74.6261,19.5593 C74.6251,19.5583 74.6251,19.5563 74.6241,19.5553 C74.4371,20.2143 74.3151,20.8883 74.1821,21.5623 C74.1821,21.5623 74.1821,21.5623 74.1821,21.5623 C73.7631,23.5243 73.3441,25.4853 72.9251,27.4473 C72.9261,27.4473 72.9261,27.4483 72.9271,27.4483 C72.8011,28.0143 72.6691,28.5823 72.5481,29.1513 C72.2321,30.6543 71.9161,32.1573 71.5991,33.6613 L71.5991,33.6613 C71.5721,33.7203 71.5481,33.7813 71.5301,33.8443 C71.1591,35.5823 70.7901,37.3213 70.4261,39.0603 C70.1331,40.4553 69.8411,41.8503 69.5491,43.2463 C69.3811,44.0053 69.2071,44.7623 69.0461,45.5263 C68.6421,47.4323 68.2381,49.3383 67.8351,51.2443 L67.8341,51.2443 C67.7311,51.7053 67.6251,52.1653 67.5261,52.6253 C66.9941,55.1033 66.4631,57.5833 65.9311,60.0613 C65.9031,60.1983 65.8541,60.3143 66.0821,60.3143 C67.8531,60.3033 69.6231,60.3023 71.3921,60.2983 C71.3921,60.2983 71.3921,60.2993 71.3921,60.3003 L76.1531,60.3003 C76.1531,60.2983 76.1521,60.2973 76.1521,60.2953 C76.1521,60.2963 76.1521,60.2963 76.1521,60.2963 C77.7631,60.2983 79.3731,60.3033 80.9841,60.3123 C81.1161,60.3143 81.1691,60.2793 81.1941,60.1433 C81.2411,59.8883 81.3161,59.6403 81.3791,59.3873 C81.6631,58.0923 81.9531,56.7983 82.2341,55.5013 C82.4001,54.7313 82.5501,53.9583 82.7071,53.1863 C82.7071,53.1853 82.7071,53.1833 82.7071,53.1813 C82.7271,53.1353 82.7441,53.0863 82.7581,53.0373 C83.1761,51.0523 83.5941,49.0673 84.0121,47.0823 L84.0111,47.0803 C84.0121,47.0803 84.0121,47.0813 84.0131,47.0823 C84.1431,46.4873 84.2721,45.8923 84.4021,45.2983 C84.4011,45.2973 84.4001,45.2963 84.3991,45.2963 C84.4011,45.2963 84.4021,45.2973 84.4041,45.2963 L84.7561,43.5983 C84.8191,43.3443 84.8881,43.0913 84.9421,42.8353 C85.3201,41.0343 85.6971,39.2353 86.0731,37.4383 C86.0731,37.4373 86.0721,37.4363 86.0721,37.4353 C86.0721,37.4353 86.0731,37.4363 86.0731,37.4363 C86.0941,37.3983 86.1111,37.3583 86.1241,37.3173 C86.5891,35.1623 87.0511,33.0063 87.5081,30.8493 C87.7201,29.8533 87.9181,28.8533 88.1221,27.8553 C88.1221,27.8553 88.1231,27.8553 88.1231,27.8563 C88.1441,27.8173 88.1611,27.7773 88.1741,27.7353 C88.7501,25.0633 89.3221,22.3893 89.8901,19.7163 C90.1711,18.3953 90.4411,17.0723 90.7151,15.7503 C90.7331,15.7123 90.7471,15.6713 90.7581,15.6303 C91.5711,11.8383 92.3841,8.0453 93.1951,4.2523 C93.4211,3.2013 93.6411,2.1503 93.8691,1.0733" id="Fill-5" fill="#000" />
			<path d="M138.0117,2.5235 C137.7057,2.4365 137.4097,2.3135 137.1087,2.2135 C135.5087,1.6645 133.8747,1.2185 132.2177,0.8805 C132.2177,0.8805 132.2177,0.8795 132.2167,0.8795 C132.1097,0.8535 132.0057,0.8225 131.8987,0.8005 C129.5217,0.3155 127.1057,0.0465 124.6807,0.0005 L123.0877,0.0235 C123.0887,0.0275 123.0897,0.0315 123.0907,0.0355 C123.0877,0.0325 123.0867,0.0285 123.0847,0.0255 L123.0917,0.0005 C122.2157,0.0485 121.3377,0.0825 120.4627,0.1485 C119.7637,0.1835 119.0677,0.2685 118.3797,0.4005 L118.3797,0.4015 C116.9527,0.5665 115.5427,0.8565 114.1657,1.2675 C114.1657,1.2685 114.1667,1.2695 114.1667,1.2695 C114.1657,1.2695 114.1657,1.2685 114.1657,1.2685 C112.6577,1.6445 111.1937,2.1745 109.7937,2.8505 C109.7987,2.8505 109.7987,2.8545 109.8037,2.8545 C109.7997,2.8565 109.7977,2.8545 109.7937,2.8565 C108.4877,3.4175 107.2467,4.1185 106.0937,4.9495 C106.0927,4.9475 106.0927,4.9465 106.0917,4.9445 C104.7917,5.8045 103.6127,6.8335 102.5837,8.0035 C102.5837,8.0045 102.5847,8.0055 102.5847,8.0065 C102.2787,8.3035 101.9977,8.6265 101.7477,8.9715 C100.8817,10.0485 100.1617,11.2355 99.6097,12.5015 C99.5687,12.5775 99.5237,12.6515 99.4857,12.7315 C98.7517,14.4045 98.2937,16.1855 98.1267,18.0045 C97.8707,20.1995 98.1487,22.4235 98.9357,24.4875 C99.8627,26.7215 101.2887,28.7135 103.1067,30.3095 C104.4447,31.5415 105.9127,32.6205 107.4887,33.5285 L107.4887,33.5285 L107.4887,33.5285 C107.5487,33.5745 107.6107,33.6205 107.6747,33.6595 C108.9117,34.4055 110.1937,35.0705 111.4857,35.7155 C112.0667,36.0055 112.6527,36.2865 113.2367,36.5715 C113.2377,36.5705 113.2377,36.5705 113.2387,36.5695 C113.8557,36.9215 114.4767,37.2675 115.0897,37.6265 C116.0837,38.1885 117.0067,38.8665 117.8407,39.6465 C118.6737,40.3965 119.2227,41.4105 119.3977,42.5175 C119.3987,42.5245 119.3977,42.5325 119.3987,42.5395 L119.3987,43.4845 C119.3977,43.4915 119.3987,43.4995 119.3977,43.5055 C119.2637,44.5195 118.8167,45.4665 118.1177,46.2125 L118.1177,46.2135 C117.4047,46.8845 116.5767,47.4235 115.6747,47.8055 C115.1187,48.0435 114.5367,48.2005 113.9677,48.3975 C113.9677,48.3995 113.9697,48.4005 113.9697,48.4025 C113.9687,48.4025 113.9687,48.4015 113.9687,48.4015 C112.4587,48.7435 110.9137,48.8985 109.3667,48.8655 C108.7407,48.8485 108.1167,48.8305 107.4917,48.8125 C107.4907,48.8125 107.4907,48.8115 107.4907,48.8105 C105.7797,48.7025 104.0797,48.4545 102.4087,48.0675 C101.6547,47.8825 100.9047,47.6705 100.1527,47.4705 C100.1527,47.4755 100.1557,47.4795 100.1557,47.4835 C100.1547,47.4805 100.1537,47.4785 100.1527,47.4755 C99.3807,47.1875 98.6067,46.9115 97.8407,46.6095 C96.7987,46.1985 95.7847,45.7165 94.7677,45.2475 C94.6757,45.2045 94.5227,45.0335 94.4697,45.2865 C94.2217,46.4575 93.9827,47.6285 93.7397,48.7995 C93.7177,48.8495 93.6987,48.9015 93.6847,48.9535 C93.0537,51.9195 92.4187,54.8865 91.7807,57.8515 C91.7507,57.9195 91.7527,57.9995 91.7867,58.0655 C91.8207,58.1325 91.8827,58.1805 91.9557,58.1965 C93.3417,58.7885 94.7707,59.2705 96.2317,59.6385 C96.8217,59.8145 97.4237,59.9475 98.0337,60.0355 C98.0337,60.0365 98.0337,60.0375 98.0347,60.0385 C98.4897,60.1665 98.9507,60.2645 99.4177,60.3335 C100.5727,60.5615 101.7367,60.7305 102.9077,60.8375 C103.0177,60.8955 103.1457,60.8325 103.2537,60.8935 L103.4957,60.9115 C103.5087,60.9175 103.5237,60.9135 103.5357,60.9175 C103.6237,60.9515 103.7167,60.9635 103.8107,60.9545 C103.8237,60.9575 103.8367,60.9535 103.8497,60.9595 L104.1617,60.9755 C104.2947,61.0385 104.4437,60.9665 104.5757,61.0255 L104.8847,61.0435 C104.9547,61.0645 105.0057,61.0665 105.0467,61.0595 C105.1217,61.0725 105.1967,61.0975 105.2727,61.0905 C106.2977,61.1395 107.3237,61.1895 108.3477,61.2385 L108.3517,61.2385 C108.3517,61.2385 108.3507,61.2385 108.3497,61.2395 L108.3497,61.2945 L109.6717,61.2945 L109.6717,61.2385 L109.6697,61.2385 L109.6727,61.2385 L109.8057,61.2165 C109.8097,61.2155 109.8137,61.2165 109.8177,61.2155 C109.8137,61.2165 109.8087,61.2165 109.8047,61.2175 C110.0587,61.2365 110.3137,61.2245 110.5667,61.1975 C110.6007,61.1935 110.6337,61.1905 110.6667,61.1855 C110.7177,61.1785 110.7697,61.1775 110.8207,61.1695 L110.8187,61.1695 L110.8227,61.1695 L111.4577,61.1505 C111.4577,61.1515 111.4567,61.1515 111.4567,61.1515 C111.6417,61.1735 111.8287,61.1575 112.0077,61.1025 L112.0047,61.1025 L112.0087,61.1025 L112.0317,61.1145 L112.0507,61.1015 C112.1157,61.1025 112.1827,61.1085 112.2467,61.1065 C113.5957,61.0155 114.9377,60.8475 116.2667,60.6025 C117.0087,60.4885 117.7417,60.3245 118.4627,60.1125 C118.4637,60.1115 118.4627,60.1105 118.4637,60.1095 C119.9607,59.7895 121.4207,59.3175 122.8237,58.7045 C122.8237,58.7015 122.8227,58.6975 122.8217,58.6945 C122.8237,58.6975 122.8237,58.7005 122.8257,58.7035 C123.8277,58.2925 124.7977,57.8075 125.7297,57.2535 C125.7317,57.2545 125.7317,57.2575 125.7347,57.2575 C125.8567,57.2795 125.9337,57.1825 126.0257,57.1315 C127.2427,56.4055 128.3857,55.5575 129.4357,54.6045 C129.4647,54.5945 129.4927,54.5815 129.5187,54.5635 C130.7867,53.4295 131.8787,52.1135 132.7587,50.6585 L132.7587,50.6575 C132.8027,50.5955 132.8507,50.5365 132.8887,50.4715 C134.7827,47.2805 135.6597,43.5875 135.4047,39.8855 C135.2297,36.5765 133.8557,33.4445 131.5397,31.0745 C129.1677,28.5535 126.2477,26.8065 123.2227,25.2095 L123.2227,25.2095 C121.2187,24.1005 119.1577,23.0975 117.2087,21.8885 L117.2087,21.8935 C117.1227,21.8285 117.0377,21.7595 116.9487,21.6975 C116.1017,21.1575 115.3517,20.4815 114.7277,19.6945 C114.1087,18.9165 113.8557,17.9095 114.0327,16.9315 C114.1577,16.3725 114.3847,15.8415 114.6997,15.3645 C114.7007,15.3625 114.6997,15.3605 114.6997,15.3585 C115.6567,14.1965 116.9477,13.3585 118.3987,12.9595 C118.3997,12.9585 118.3997,12.9585 118.4007,12.9575 C119.3957,12.6905 120.4127,12.5125 121.4407,12.4265 C121.4427,12.4255 121.4447,12.4265 121.4467,12.4265 C121.4447,12.4275 121.4427,12.4275 121.4397,12.4285 C121.5317,12.4365 121.6197,12.4125 121.7107,12.4065 C121.7357,12.4055 121.7597,12.4035 121.7837,12.4015 C121.8747,12.3925 121.9667,12.4025 122.0547,12.3795 C122.0487,12.3805 122.0427,12.3795 122.0367,12.3795 C122.0427,12.3775 122.0487,12.3795 122.0547,12.3775 L123.0237,12.3645 C123.0247,12.3645 123.0247,12.3655 123.0247,12.3655 L125.3107,12.4465 C125.4247,12.4985 125.5527,12.4435 125.6647,12.4965 L125.9757,12.5145 C126.0867,12.5695 126.2137,12.5105 126.3247,12.5625 C126.7117,12.6505 127.1057,12.7005 127.5007,12.7125 C127.5087,12.7145 127.5127,12.7125 127.5207,12.7155 C127.5657,12.7335 127.6127,12.7505 127.6597,12.7615 C128.9287,12.9635 130.1837,13.2495 131.4147,13.6165 C132.7517,14.0125 134.0607,14.4975 135.3327,15.0675 C135.4297,15.1115 135.5717,15.2635 135.6227,15.0135 L136.3187,11.6605 L136.3187,11.6575 C136.3407,11.6085 136.3597,11.5585 136.3737,11.5065 C136.6057,10.4205 136.8377,9.3355 137.0717,8.2495 C137.4507,6.4645 137.8357,4.6815 138.2267,2.8995 C138.2727,2.6875 138.2267,2.5845 138.0117,2.5235" id="Fill-7" fill="#000" />
		</g>
	</g>
</svg>
